# xmcd
#
# Track frame offsets:
#	200
#	13817
#	24627
#	35710
#	52555
#	62187
#	71365
#	88890
#	100577
#	113022
#
# Disc length: 1651 seconds
#
# Revision: 0
# Processed by: cddbd v1.5.1PL0 Copyright (c) Steve Scherf et al.
# Submitted via: dBpowerAMP V4.0
#
DISCID=7a06710a
DTITLE=Rhonda Vincent - New Dreams And Sunshine
DYEAR=1991
DGENRE=Bluegrass
TTITLE0=Country Rain
TTITLE1=We Belong Together
TTITLE2=My Blue Tears
TTITLE3=Thinking About You
TTITLE4=I Feel Closer To Heaven Everyday
TTITLE5=Another Tear
TTITLE6=New Dreams And Shunshine
TTITLE7=I'll Be With You
TTITLE8=Have I Love You Too Late
TTITLE9=Rise And Shine
EXTD=
EXTT0=
EXTT1=
EXTT2=
EXTT3=
EXTT4=
EXTT5=
EXTT6=
EXTT7=
EXTT8=
EXTT9=
PLAYORDER=
